<svg width="320" height="320" viewBox="0 0 320 320" fill="none" xmlns="http://www.w3.org/2000/svg">
<circle cx="160" cy="160" r="160" fill="#28372D"/>
<path d="M166.25 107.5C166.25 82.6472 146.103 62.5 121.25 62.5C96.3972 62.5 76.25 82.6472 76.25 107.5V152.5H96.2602V107.5C96.2602 93.703 107.453 82.5102 121.25 82.5102C135.047 82.5102 146.24 93.703 146.24 107.5V152.5H166.25V107.5Z" fill="white"/>
<path d="M207.5 156.25C188.199 156.25 172.5 140.551 172.5 121.25V86.25H192.724V121.25C192.724 129.423 199.373 136.026 207.5 136.026C215.627 136.026 222.276 129.377 222.276 121.25V86.25H242.5V121.25C242.546 140.551 226.847 156.25 207.5 156.25Z" fill="white"/>
<path d="M121.25 156.25C96.3972 156.25 76.25 176.677 76.25 201.875C76.25 227.073 96.3972 247.5 121.25 247.5C146.103 247.5 166.25 227.073 166.25 201.875C166.25 176.677 146.103 156.25 121.25 156.25ZM121.25 227.212C107.453 227.212 96.2602 215.864 96.2602 201.875C96.2602 187.886 107.453 176.538 121.25 176.538C135.047 176.538 146.24 187.886 146.24 201.875C146.24 215.864 135.047 227.212 121.25 227.212Z" fill="#00A15F"/>
<path d="M208.75 166.25H172.5V186.958H208.75C217.19 186.958 224.062 193.754 224.062 202.101C224.062 210.447 217.19 217.244 208.75 217.244H193.162H172.5V237.951V258.75H193.162V237.951H208.75C228.72 237.951 245 221.85 245 202.101C245 182.305 228.72 166.25 208.75 166.25Z" fill="#00A15F"/>
</svg>
