<svg width="480" height="235" viewBox="0 0 480 235" fill="none" xmlns="http://www.w3.org/2000/svg">
<rect width="480" height="235" fill="white"/>
<path d="M152.629 107.131C152.629 78.8841 129.663 56 101.314 56C72.9663 56 50 78.8841 50 107.131V158.262H72.8064V107.131C72.8064 91.4677 85.595 78.7248 101.314 78.7248C117.034 78.7248 129.822 91.4677 129.822 107.131V158.262H152.629V107.131Z" fill="#28372D"/>
<path d="M199.201 161.66C177.407 161.66 159.716 143.979 159.716 122.316V82.9724H182.522V122.316C182.522 131.502 189.982 138.935 199.201 138.935C208.419 138.935 215.879 131.502 215.879 122.316V82.9724H238.686V122.316C238.686 144.032 220.995 161.66 199.201 161.66Z" fill="#28372D"/>
<path d="M297.087 59.3981C268.739 59.3981 245.773 82.2822 245.773 110.529C245.773 138.776 268.739 161.66 297.087 161.66C325.435 161.66 348.402 138.776 348.402 110.529C348.402 82.2822 325.435 59.3981 297.087 59.3981ZM297.087 138.935C281.368 138.935 268.579 126.192 268.579 110.529C268.579 94.8658 281.368 82.1229 297.087 82.1229C312.806 82.1229 325.595 94.8658 325.595 110.529C325.595 126.192 312.806 138.935 297.087 138.935Z" fill="#00A15F"/>
<path d="M391.67 82.9724H353.89V104.742H391.67C400.462 104.742 407.602 111.856 407.602 120.617C407.602 129.378 400.462 136.493 391.67 136.493H375.417H353.89V158.262V180.084H375.417V158.262H391.67C412.504 158.262 429.449 141.377 429.449 120.617C429.396 99.8568 412.451 82.9724 391.67 82.9724Z" fill="#00A15F"/>
</svg>
